<?xml version="1.0" encoding="utf-8"?>
<!-- Generator: Adobe Illustrator 26.3.1, SVG Export Plug-In . SVG Version: 6.00 Build 0)  -->
<svg version="1.1" id="Layer_1" xmlns="http://www.w3.org/2000/svg" xmlns:xlink="http://www.w3.org/1999/xlink" x="0px" y="0px"
	 viewBox="0 0 49 49" style="enable-background:new 0 0 49 49;" xml:space="preserve">
<style type="text/css">
	.st0{fill:#F7B032;}
	.st1{fill:#70706F;}
</style>
<g>
	<g>
		<g>
			<g>
				<path class="st0" d="M21.61,35.05V19.82H26v15.22c0,0.89-0.72,1.62-1.62,1.62h-1.17C22.33,36.66,21.61,35.94,21.61,35.05z
					 M21.29,15.8c0-0.36,0.07-0.7,0.21-1.02c0.14-0.32,0.32-0.59,0.55-0.83c0.23-0.24,0.49-0.42,0.79-0.56
					c0.3-0.13,0.62-0.2,0.96-0.2c0.34,0,0.66,0.07,0.97,0.2c0.31,0.13,0.58,0.32,0.81,0.56c0.23,0.24,0.41,0.51,0.54,0.83
					c0.13,0.32,0.19,0.65,0.19,1.02c0,0.36-0.07,0.7-0.19,1.01c-0.13,0.31-0.31,0.58-0.54,0.81c-0.23,0.23-0.5,0.41-0.81,0.54
					c-0.31,0.13-0.63,0.2-0.97,0.2c-0.34,0-0.66-0.07-0.96-0.2c-0.3-0.13-0.56-0.32-0.79-0.54c-0.23-0.23-0.42-0.5-0.55-0.81
					C21.36,16.5,21.29,16.16,21.29,15.8z"/>
			</g>
		</g>
		<path class="st1" d="M44.77,40.42l-4.24-3.84c0.82-1.21,1.52-2.52,2.07-3.93c0.99-2.52,1.48-5.24,1.48-8.17
			c0-2.92-0.49-5.65-1.48-8.17c-0.99-2.52-2.39-4.72-4.23-6.61c-1.83-1.89-3.99-3.36-6.49-4.42c-2.5-1.06-5.21-1.59-8.15-1.59
			c-2.98,0-5.72,0.53-8.21,1.59c-2.5,1.06-4.66,2.53-6.49,4.42c-1.83,1.89-3.25,4.09-4.26,6.61c-1.01,2.52-1.51,5.24-1.51,8.17
			c0,2.92,0.5,5.65,1.51,8.17c1.01,2.52,2.43,4.72,4.26,6.61c1.83,1.89,4,3.36,6.49,4.42c2.5,1.06,5.23,1.59,8.21,1.59
			c2.94,0,5.66-0.53,8.15-1.59c1.82-0.77,3.46-1.77,4.93-2.98l4.24,3.84c0.6,0.54,1.28,0.8,2.04,0.76c0.76-0.04,1.39-0.34,1.91-0.92
			c0.55-0.6,0.79-1.27,0.74-2.02C45.69,41.61,45.37,40.97,44.77,40.42z M30.91,37.53c-2.09,1.31-4.49,1.96-7.19,1.96
			c-2.74,0-5.15-0.65-7.25-1.96c-2.09-1.31-3.73-3.1-4.92-5.37c-1.19-2.27-1.78-4.83-1.78-7.68c0-2.85,0.59-5.41,1.78-7.68
			c1.19-2.27,2.83-4.06,4.92-5.37c2.09-1.31,4.51-1.96,7.25-1.96c2.7,0,5.09,0.66,7.19,1.96c2.09,1.31,3.72,3.09,4.89,5.34
			c1.17,2.25,1.75,4.82,1.75,7.71c0,2.85-0.58,5.41-1.75,7.68C34.63,34.43,33,36.22,30.91,37.53z"/>
	</g>
</g>
</svg>
